<svg width="140" height="140" viewBox="0 0 140 140" fill="none" xmlns="http://www.w3.org/2000/svg">
<g id="chelik" clip-path="url(#clip0_1_2)">
<g id="Rectangle 2">
<rect x="53" y="1" width="45" height="77" fill="#B397FD"/>
<rect x="53" y="1" width="45" height="77" fill="url(#paint0_radial_1_2)"/>
</g>
<g id="SunAndMoon">
<g id="Ellipse 1">
<path d="M140 70.0593C140 108.491 125.797 143.746 73.0435 139.679C27.8986 143.746 0 108.491 0 70.0593C0 31.6272 20.7971 -2.04948 70 0.471759C128.841 -4.57088 140 31.6272 140 70.0593Z" fill="#B397FD"/>
<path d="M140 70.0593C140 108.491 125.797 143.746 73.0435 139.679C27.8986 143.746 0 108.491 0 70.0593C0 31.6272 20.7971 -2.04948 70 0.471759C128.841 -4.57088 140 31.6272 140 70.0593Z" fill="url(#paint1_angular_1_2)"/>
<path d="M85.2615 105.218C84.7125 105.576 84.1506 104.723 84.7101 104.381C85.2591 104.023 85.8211 104.875 85.2615 105.218Z" fill="#B397FD"/>
<path d="M85.2615 105.218C84.7125 105.576 84.1506 104.723 84.7101 104.381C85.2591 104.023 85.8211 104.875 85.2615 105.218Z" fill="url(#paint2_angular_1_2)"/>
</g>
<path id="Vector" opacity="0.8" d="M53.0765 92.4862L58.7716 96.5607L64.4668 100.635L67.6818 102.935C67.8597 103.063 68.0985 102.821 67.9206 102.694L62.2254 98.6193L56.5303 94.5448L53.3153 92.2447C53.1374 92.1174 52.8986 92.3589 53.0765 92.4862V92.4862Z" fill="url(#paint3_linear_1_2)"/>
<path id="Vector_2" d="M90.5515 126.723C95.5027 126.285 99.1613 121.916 98.7232 116.965C98.2851 112.014 93.9162 108.355 88.965 108.793C84.0138 109.231 80.3552 113.6 80.7933 118.551C81.2313 123.503 85.6003 127.161 90.5515 126.723Z" fill="#E6E6E6"/>
<path id="Vector_3" d="M88.7582 112.758C89.3105 112.758 89.7582 112.31 89.7582 111.758C89.7582 111.206 89.3105 110.758 88.7582 110.758C88.2059 110.758 87.7582 111.206 87.7582 111.758C87.7582 112.31 88.2059 112.758 88.7582 112.758Z" fill="#CBCBCB"/>
<path id="Vector_4" d="M90.7582 123.758C91.3105 123.758 91.7582 123.31 91.7582 122.758C91.7582 122.206 91.3105 121.758 90.7582 121.758C90.2059 121.758 89.7582 122.206 89.7582 122.758C89.7582 123.31 90.2059 123.758 90.7582 123.758Z" fill="#CBCBCB"/>
<path id="Vector_5" d="M94.7582 117.758C95.3105 117.758 95.7582 117.31 95.7582 116.758C95.7582 116.206 95.3105 115.758 94.7582 115.758C94.2059 115.758 93.7582 116.206 93.7582 116.758C93.7582 117.31 94.2059 117.758 94.7582 117.758Z" fill="#CBCBCB"/>
<path id="Vector_6" d="M86.2582 121.758C87.6389 121.758 88.7582 120.639 88.7582 119.258C88.7582 117.877 87.6389 116.758 86.2582 116.758C84.8775 116.758 83.7582 117.877 83.7582 119.258C83.7582 120.639 84.8775 121.758 86.2582 121.758Z" fill="#CBCBCB"/>
<path id="Vector_7" d="M72.5 123C72.7761 123 73 122.776 73 122.5C73 122.224 72.7761 122 72.5 122C72.2239 122 72 122.224 72 122.5C72 122.776 72.2239 123 72.5 123Z" fill="#6C63FF"/>
<path id="Vector_8" d="M93.7718 95.9146C93.2306 96.2696 92.6767 95.4246 93.2283 95.0854C93.7694 94.7304 94.3233 95.5754 93.7718 95.9146Z" fill="#E6E6E6"/>
<path id="Vector_9" d="M72 91.4854L71.6446 91.4074L71.7224 91.0519L71.4855 91L71.4075 91.3555L71.0519 91.2776L71 91.5146L71.3556 91.5926L71.2777 91.9482L71.5147 92L71.5927 91.6445L71.9481 91.7224L72 91.4854Z" fill="#E6E6E6"/>
<path id="Vector_10" opacity="0.8" d="M104.068 104.057L109.619 107.917L115.17 111.778L118.303 113.957C118.477 114.078 118.724 113.862 118.55 113.741L112.999 109.881L107.448 106.02L104.314 103.84C104.141 103.72 103.894 103.936 104.068 104.057V104.057Z" fill="url(#paint4_linear_1_2)"/>
<circle id="Ellipse 2" cx="82.5" cy="103.5" r="0.5" fill="#D9D9D9"/>
<circle id="Ellipse 3" cx="97.5" cy="130.5" r="0.5" fill="#D9D9D9"/>
<path id="sun" d="M57.2209 25.9755C62.3134 25.9755 66.4418 21.7277 66.4418 16.4877C66.4418 11.2478 62.3134 7 57.2209 7C52.1283 7 48 11.2478 48 16.4877C48 21.7277 52.1283 25.9755 57.2209 25.9755Z" fill="#FFE27A"/>
</g>
<g id="Rectangle 4">
<path d="M0 0H51V81H92.5V0H140V140H0V0Z" fill="#B397FD"/>
<path d="M0 0H51V81H92.5V0H140V140H0V0Z" fill="url(#paint5_radial_1_2)"/>
</g>
<path id="Vector_11" d="M125.195 112.933C129.124 107.471 130.634 99.778 127.579 93.7547C124.713 100.53 119.61 106.043 113.174 109.32C110.687 110.575 107.794 111.703 106.643 114.295C105.927 115.908 106.064 117.812 106.639 119.483C107.215 121.155 108.194 122.642 109.163 124.108L109.214 124.548C115.314 121.945 121.267 118.394 125.195 112.933Z" fill="#429D40"/>
<path id="Vector_12" d="M127.448 93.8031C127.272 99.4242 125.379 104.845 122.039 109.296C121.336 110.268 120.489 111.119 119.528 111.819C118.572 112.47 117.463 112.845 116.317 112.906C115.25 112.984 114.15 112.938 113.12 113.282C112.596 113.466 112.115 113.762 111.709 114.151C111.304 114.54 110.983 115.013 110.767 115.538C110.197 116.833 110.113 118.262 110.078 119.661C110.04 121.216 110.023 122.831 109.311 124.244C109.224 124.415 109.488 124.543 109.574 124.372C110.813 121.914 110.008 119.039 110.747 116.455C111.092 115.249 111.792 114.143 112.962 113.659C113.985 113.237 115.12 113.284 116.201 113.214C117.319 113.172 118.41 112.848 119.379 112.272C120.371 111.624 121.248 110.808 121.974 109.858C123.641 107.745 124.975 105.376 125.926 102.837C127.028 99.9453 127.641 96.8812 127.738 93.777C127.744 93.5849 127.454 93.6122 127.448 93.8031V93.8031Z" fill="white"/>
<path id="Vector_13" d="M123.196 107.928C123.998 108.404 124.938 108.57 125.848 108.398C126.759 108.226 127.58 107.727 128.165 106.99C128.283 106.84 128.063 106.644 127.945 106.794C127.401 107.482 126.636 107.947 125.788 108.105C124.94 108.264 124.065 108.105 123.321 107.658C123.159 107.561 123.035 107.832 123.196 107.928Z" fill="white"/>
<path id="Vector_14" d="M116.863 112.939C116.356 111.064 116.554 109.061 117.418 107.329C117.503 107.158 117.24 107.03 117.155 107.201C116.259 109.005 116.057 111.09 116.589 113.04C116.64 113.226 116.914 113.124 116.863 112.939H116.863Z" fill="white"/>
<path id="Vector_15" d="M126.642 99.9592C126.295 99.8418 125.981 99.6374 125.729 99.3644C125.477 99.0914 125.295 98.7583 125.2 98.3951C125.151 98.2087 124.877 98.3108 124.926 98.496C125.033 98.8968 125.235 99.2644 125.512 99.5666C125.79 99.8689 126.135 100.097 126.518 100.23C126.553 100.246 126.592 100.247 126.628 100.234C126.664 100.22 126.694 100.194 126.712 100.159C126.728 100.123 126.73 100.082 126.717 100.044C126.704 100.007 126.677 99.9763 126.642 99.9592V99.9592Z" fill="white"/>
<path id="Vector_16" d="M105.711 88.9613C105.738 89.0786 105.765 89.1958 105.791 89.315C106.147 90.8938 106.379 92.4998 106.482 94.1172C106.492 94.2421 106.5 94.3688 106.507 94.4938C106.716 98.393 106.22 102.298 105.044 106.011C104.575 107.488 103.997 108.926 103.316 110.313C102.374 112.228 101.206 114.228 100.942 116.291C100.913 116.505 100.896 116.722 100.892 116.939L108.689 124.578C108.715 124.586 108.74 124.596 108.766 124.604L109.064 124.924C109.104 124.855 109.144 124.782 109.184 124.713C109.207 124.673 109.229 124.632 109.252 124.592C109.268 124.565 109.282 124.537 109.298 124.514C109.303 124.505 109.307 124.496 109.311 124.488C109.326 124.465 109.337 124.441 109.351 124.419C109.576 124.015 109.798 123.609 110.018 123.2C110.02 123.198 110.02 123.198 110.02 123.194C111.69 120.074 113.121 116.782 114.022 113.372C114.049 113.269 114.077 113.165 114.101 113.058C114.499 111.519 114.773 109.948 114.922 108.363C115.001 107.494 115.037 106.622 115.03 105.75C115.008 103.496 114.641 101.26 113.944 99.1238C112.553 94.8648 109.854 91.1109 106.007 89.1111C105.908 89.06 105.811 89.0105 105.711 88.9613Z" fill="#429D40"/>
<path id="Vector_17" d="M105.634 89.0803C108.783 93.6775 110.444 99.1786 110.381 104.802C110.388 106.013 110.21 107.218 109.853 108.371C109.469 109.484 108.804 110.47 107.925 111.228C107.119 111.952 106.213 112.596 105.592 113.509C105.281 113.981 105.07 114.516 104.974 115.077C104.878 115.639 104.898 116.215 105.034 116.768C105.336 118.155 106.105 119.348 106.896 120.487C107.775 121.752 108.707 123.052 108.964 124.622C108.996 124.812 109.281 124.751 109.249 124.561C108.801 121.83 106.476 120.034 105.554 117.513C105.123 116.336 105.035 115.019 105.686 113.909C106.256 112.938 107.19 112.272 108.012 111.547C108.88 110.82 109.562 109.886 109.998 108.826C110.411 107.694 110.634 106.499 110.658 105.29C110.752 102.571 110.431 99.853 109.705 97.2362C108.893 94.245 107.589 91.4188 105.851 88.8798C105.743 88.7227 105.527 88.9242 105.634 89.0803V89.0803Z" fill="white"/>
<path id="Vector_18" d="M110.505 102.993C111.423 102.875 112.271 102.426 112.897 101.725C113.523 101.024 113.887 100.116 113.923 99.1649C113.93 98.9724 113.639 98.9527 113.633 99.1455C113.601 100.032 113.262 100.877 112.677 101.529C112.093 102.18 111.302 102.595 110.446 102.699C110.26 102.722 110.32 103.015 110.505 102.993H110.505Z" fill="white"/>
<path id="Vector_19" d="M108.38 110.917C106.878 109.734 105.864 108.012 105.54 106.094C105.508 105.904 105.223 105.965 105.255 106.155C105.595 108.15 106.654 109.94 108.22 111.167C108.37 111.284 108.529 111.033 108.38 110.917V110.917Z" fill="white"/>
<path id="Vector_20" d="M108.593 94.495C108.247 94.6166 107.877 94.6477 107.516 94.5857C107.155 94.5237 106.815 94.3705 106.526 94.1398C106.378 94.021 106.219 94.2721 106.366 94.3901C106.687 94.6434 107.063 94.8122 107.461 94.8816C107.859 94.951 108.268 94.919 108.652 94.7882C108.689 94.779 108.722 94.7556 108.743 94.7228C108.764 94.6899 108.772 94.65 108.765 94.6113C108.757 94.5725 108.734 94.5385 108.702 94.5167C108.67 94.495 108.631 94.4872 108.593 94.495Z" fill="white"/>
<path id="Vector_21" d="M3.0984 82.3437C-0.385616 76.5717 -1.28382 68.7778 2.23761 63.03C4.55889 70.0223 9.20907 75.9443 15.3654 79.7484C17.7448 81.2067 20.5388 82.5737 21.4813 85.2532C22.0678 86.9205 21.7815 88.8071 21.0756 90.4246C20.3697 92.0421 19.2763 93.4423 18.1947 94.8228L18.1091 95.2566C12.2349 92.1528 6.58243 88.1157 3.0984 82.3437Z" fill="#429D40"/>
<path id="Vector_22" d="M2.36371 63.0891C2.09518 68.7063 3.55362 74.2678 6.53189 78.9836C7.15553 80.0105 7.93259 80.9299 8.83446 81.7078C9.73679 82.4364 10.8123 82.9031 11.9492 83.0594C13.0064 83.227 14.1067 83.2725 15.1059 83.7017C15.6142 83.9291 16.07 84.2646 16.4435 84.6861C16.8169 85.1075 17.0996 85.6054 17.2729 86.1472C17.7389 87.4855 17.7097 88.9162 17.634 90.3144C17.5498 91.8668 17.4385 93.4778 18.0371 94.9456C18.1096 95.1235 17.8372 95.2289 17.7648 95.0513C16.7234 92.4975 17.7527 89.6997 17.2205 87.0623C16.9722 85.8317 16.3619 84.6706 15.234 84.0911C14.2477 83.5844 13.1131 83.5365 12.0412 83.3763C10.93 83.2406 9.8679 82.8269 8.94782 82.1715C8.01036 81.4433 7.20018 80.5563 6.55196 79.5484C5.05743 77.3033 3.91526 74.8304 3.16731 72.2203C2.29761 69.2462 1.92877 66.1409 2.07674 63.0389C2.08598 62.8469 2.37289 62.8983 2.36371 63.0891L2.36371 63.0891Z" fill="white"/>
<path id="Vector_23" d="M5.48606 77.5232C4.64927 77.93 3.69921 78.0174 2.80555 77.7699C1.91189 77.5224 1.13282 76.9562 0.607477 76.1722C0.501709 76.0132 0.736867 75.8366 0.842776 75.9958C1.33067 76.7268 2.05642 77.2542 2.88906 77.4829C3.72169 77.7116 4.60635 77.6265 5.38337 77.243C5.55232 77.1599 5.65404 77.4406 5.48606 77.5232V77.5232Z" fill="white"/>
<path id="Vector_24" d="M11.4023 83.047C12.0563 81.2205 12.0173 79.2074 11.2929 77.4092C11.221 77.2311 11.4934 77.1256 11.5652 77.3035C12.3156 79.1763 12.3521 81.2713 11.6674 83.1705C11.6021 83.3515 11.3372 83.227 11.4023 83.047V83.047Z" fill="white"/>
<path id="Vector_25" d="M2.68088 69.2923C3.03653 69.2043 3.36537 69.0268 3.63788 68.7758C3.91039 68.5248 4.11804 68.208 4.24217 67.854C4.3053 67.6722 4.57006 67.7968 4.50735 67.9774C4.36843 68.3679 4.13869 68.7174 3.83821 68.9955C3.53772 69.2735 3.17563 69.4716 2.78357 69.5725C2.74739 69.5852 2.70787 69.5832 2.67304 69.567C2.63821 69.5508 2.61069 69.5215 2.59606 69.4852C2.58265 69.448 2.58403 69.4069 2.59991 69.3708C2.6158 69.3347 2.64489 69.3064 2.68088 69.2923V69.2923Z" fill="white"/>
<path id="Vector_26" d="M24.4114 60.081C24.3751 60.1956 24.3389 60.3102 24.304 60.4269C23.8241 61.9707 23.4668 63.552 23.2357 65.1553C23.2159 65.279 23.1977 65.4046 23.1814 65.5286C22.6647 69.3975 22.8506 73.3314 23.7296 77.1304C24.0807 78.6418 24.543 80.1235 25.1126 81.5627C25.8994 83.5502 26.9061 85.6408 27.0059 87.7186C27.0186 87.9352 27.0183 88.1525 27.005 88.3691L18.6301 95.3304C18.6034 95.3364 18.5781 95.3444 18.5512 95.3505L18.2292 95.6441C18.1948 95.572 18.1606 95.4965 18.1262 95.4244C18.1061 95.3826 18.0878 95.3393 18.0677 95.2976C18.0548 95.2692 18.0421 95.2408 18.0289 95.216C18.0246 95.2066 18.0204 95.1971 18.0176 95.1897C18.0045 95.1649 17.9948 95.1404 17.9832 95.1175C17.791 94.6958 17.6013 94.2718 17.4142 93.8458C17.4126 93.8438 17.4126 93.8438 17.4129 93.8403C15.9951 90.5903 14.8285 87.19 14.2005 83.7156C14.1816 83.6111 14.1611 83.5046 14.1461 83.3969C13.8715 81.8292 13.7219 80.241 13.6987 78.6482C13.6888 77.776 13.7218 76.9038 13.7976 76.0351C13.9975 73.7906 14.5393 71.5926 15.4032 69.5214C17.1258 65.3928 20.1124 61.8771 24.1052 60.2056C24.2073 60.1629 24.3077 60.1217 24.4114 60.081Z" fill="#429D40"/>
<path id="Vector_27" d="M24.4784 60.206C20.9772 64.5247 18.8874 69.8687 18.506 75.4791C18.4031 76.6853 18.4856 77.9008 18.7505 79.0806C19.0446 80.2214 19.6303 81.2602 20.4466 82.0893C21.1926 82.8781 22.0445 83.596 22.5912 84.5577C22.8639 85.0542 23.0316 85.6044 23.0832 86.1723C23.1347 86.7402 23.0691 87.3128 22.8905 87.8528C22.4794 89.21 21.619 90.3343 20.7404 91.4037C19.7649 92.5911 18.7333 93.8085 18.3524 95.3512C18.3062 95.5382 18.027 95.4535 18.0731 95.2669C18.7359 92.5828 21.1949 90.9865 22.3132 88.551C22.835 87.4145 23.0271 86.1094 22.4656 84.948C21.9746 83.9324 21.0967 83.1913 20.3346 82.3994C19.5267 81.6026 18.9208 80.6144 18.5697 79.5211C18.2473 78.3589 18.1194 77.1488 18.1916 75.9425C18.3119 73.224 18.847 70.542 19.7771 67.9946C20.8229 65.0812 22.3454 62.3733 24.2787 59.9881C24.3984 59.8406 24.5974 60.0594 24.4784 60.206V60.206Z" fill="white"/>
<path id="Vector_28" d="M18.5255 73.6651C17.6194 73.4715 16.8097 72.9527 16.2409 72.2015C15.6722 71.4503 15.3815 70.5155 15.4208 69.5642C15.4227 69.5254 15.4392 69.4889 15.4668 69.4624C15.4944 69.4359 15.5309 69.4214 15.5686 69.422C15.6063 69.4227 15.6424 69.4384 15.6691 69.4658C15.6958 69.4932 15.7111 69.5303 15.7118 69.5691C15.6737 70.455 15.9445 71.3257 16.4755 72.0241C17.0065 72.7225 17.7627 73.2026 18.6075 73.3778C18.791 73.416 18.708 73.7032 18.5255 73.6651V73.6651Z" fill="white"/>
<path id="Vector_29" d="M20.0171 81.7407C21.6081 80.6875 22.7549 79.0559 23.2287 77.1714C23.2755 76.9846 23.5547 77.0692 23.508 77.2557C23.0113 79.2159 21.8146 80.9112 20.1566 82.0035C19.9985 82.1075 19.8599 81.8441 20.0171 81.7406V81.7407Z" fill="white"/>
<path id="Vector_30" d="M21.102 65.3554C21.4374 65.5055 21.8038 65.5675 22.1683 65.5359C22.5328 65.5042 22.8839 65.38 23.1902 65.1742C23.3469 65.0682 23.4854 65.3317 23.3297 65.437C22.9903 65.6627 22.6023 65.7995 22.1997 65.8354C21.7971 65.8712 21.3921 65.8051 21.02 65.6427C20.9837 65.6305 20.9533 65.6044 20.935 65.5699C20.9166 65.5354 20.9118 65.495 20.9214 65.4569C20.9324 65.4189 20.9576 65.3869 20.9914 65.3679C21.0252 65.3489 21.065 65.3444 21.102 65.3554V65.3554Z" fill="white"/>
<path id="Vector_31" d="M96.0053 13.4419C95.1745 12.5388 94.2973 11.6821 93.3775 10.8754C91.5812 9.30795 89.5925 7.97517 87.3757 7.1356C86.5412 6.81848 85.6788 6.58489 84.8007 6.43808C84.6952 6.42054 84.5912 6.40297 84.4857 6.3886C84.478 6.38781 84.4702 6.38781 84.4625 6.3886C84.4462 6.38388 84.4296 6.38067 84.4128 6.37903C84.1972 6.3503 83.9816 6.32795 83.7644 6.31199C82.5948 6.23199 81.4203 6.34078 80.2834 6.63442C79.6238 6.80566 78.9801 7.03639 78.3599 7.32394C77.7385 7.63695 77.1361 7.98821 76.5558 8.3758C76.2441 8.57056 75.9231 8.74902 75.594 8.9105C74.6331 9.37898 73.6158 9.71392 72.5691 9.9065C71.8622 10.037 71.1464 10.1096 70.4284 10.1236C69.8048 10.1363 69.2168 10.1587 68.6258 10.3901C67.9951 10.634 67.4285 11.0263 66.9714 11.5357C66.5143 12.0451 66.1794 12.6574 65.9934 13.3238C65.9787 13.383 65.9828 13.4455 66.0052 13.502C66.0275 13.5586 66.0669 13.6064 66.1175 13.6383C66.2772 13.7564 66.4324 13.8904 66.6014 13.9958C66.7507 14.0659 66.9099 14.1106 67.073 14.1283C67.3398 14.1857 67.6072 14.2416 67.875 14.2959C68.8601 14.497 69.8492 14.6752 70.8426 14.8306C72.8406 15.1418 74.8499 15.361 76.8707 15.4882C76.883 15.49 76.8955 15.4911 76.9079 15.4914C79.1908 15.6332 81.4793 15.6561 83.7644 15.56C84.1103 15.5456 84.4547 15.5281 84.8006 15.5073C86.2417 15.4243 87.6792 15.2935 89.1131 15.1147C90.4394 14.9487 91.7606 14.7428 93.0765 14.497C94.0166 14.3214 94.953 14.1256 95.8858 13.9096C95.9312 13.8958 95.9722 13.8702 96.0051 13.8353C96.038 13.8004 96.0616 13.7574 96.0736 13.7104C96.0856 13.6634 96.0856 13.614 96.0737 13.5669C96.0617 13.5199 96.0382 13.4769 96.0053 13.4419V13.4419Z" fill="#E6E6E6"/>
<path id="Vector_32" d="M76.8397 26.0929C75.5047 24.6236 74.0339 23.2914 72.4481 22.1153C71.9222 21.7355 71.3808 21.3779 70.8239 21.0507C70.1412 20.6452 69.4321 20.2884 68.7018 19.9829C68.5389 19.9143 68.3745 19.8488 68.2101 19.7866C67.2759 19.4306 66.3069 19.1801 65.3201 19.0396C65.3124 19.038 65.3046 19.0396 65.2969 19.038C65.2813 19.0348 65.2643 19.0316 65.2488 19.0284C64.7704 18.9646 64.2884 18.9342 63.8061 18.9374C63.4602 18.9374 63.1127 18.9566 62.7683 18.9917C62.2119 19.0481 61.6603 19.1463 61.1178 19.2854C60.8494 19.354 60.5826 19.4338 60.3205 19.5248C59.9381 19.6543 59.5627 19.8045 59.1958 19.9749C59.1896 19.9781 59.1849 19.9797 59.1788 19.9829C58.5629 20.2929 57.9661 20.6415 57.3917 21.0268C57.3793 21.0348 57.3653 21.0427 57.3529 21.0507C56.7005 21.4523 56.0103 21.7849 55.2929 22.0435C54.677 22.2651 54.0453 22.437 53.4035 22.5575C52.6967 22.6883 51.9808 22.7604 51.2627 22.773C50.6391 22.7857 50.0512 22.8081 49.4618 23.0411C48.8308 23.2849 48.264 23.6772 47.8066 24.1866C47.3493 24.696 47.0141 25.3083 46.8277 25.9748C46.8134 26.034 46.8176 26.0963 46.8399 26.1528C46.8623 26.2094 46.9014 26.2571 46.9518 26.2892C47.1116 26.4074 47.2683 26.5398 47.4358 26.6452C47.5849 26.7158 47.7442 26.7605 47.9074 26.7777C48.1742 26.8351 48.441 26.8926 48.7094 26.9468C49.6944 27.148 50.6841 27.3257 51.6785 27.48C53.042 27.6922 54.4113 27.862 55.7862 27.9891C56.4377 28.0514 57.0897 28.1025 57.7423 28.1424C59.4161 28.2461 61.0914 28.2865 62.7683 28.2637C63.1143 28.2589 63.4602 28.2509 63.8061 28.2397C65.86 28.1775 67.9076 28.0189 69.949 27.7641C72.2245 27.4808 74.4845 27.0786 76.7202 26.559C76.7654 26.5454 76.8065 26.5199 76.8393 26.4852C76.8722 26.4504 76.8958 26.4075 76.9078 26.3606C76.9198 26.3138 76.9199 26.2645 76.9079 26.2176C76.896 26.1707 76.8725 26.1277 76.8397 26.0929V26.0929Z" fill="#E6E6E6"/>
<path id="Vector_33" d="M53.8558 0.629919L61.9792 116.136L45.7324 117.62V2.09948C47.6684 0.543492 50.4474 0.300054 53.8558 0.629919Z" fill="#CCCCCC"/>
<path id="Vector_34" d="M93.9543 0.629919L85.8309 116.136L102.078 117.62V2.09948C100.142 0.543492 97.3627 0.300054 93.9543 0.629919Z" fill="#CCCCCC"/>
<path id="Vector_35" d="M102.46 2.14986C101.956 0.87801 100.884 -3.05176e-05 99.6443 -3.05176e-05H47.9926C46.2691 -3.05176e-05 44.8683 1.70141 44.8683 3.79477V118.598C44.8533 119.66 45.2392 120.687 45.9449 121.462C46.3141 121.861 46.7816 122.15 47.2976 122.297C47.5239 122.361 47.7577 122.394 47.9926 122.393H99.6443C99.8792 122.394 100.113 122.361 100.339 122.297C101.729 121.913 102.769 120.401 102.769 118.598V3.79478C102.77 3.23109 102.665 2.67247 102.46 2.14986V2.14986ZM101.732 118.598C101.732 119.996 100.795 121.134 99.6443 121.134H47.9926C47.0385 121.134 46.2303 120.352 45.9837 119.288C45.931 119.062 45.9044 118.83 45.9046 118.598V3.79478C45.9046 2.39669 46.8415 1.26052 47.9926 1.26052H99.6443C99.8562 1.26034 100.066 1.29927 100.265 1.37545C101.113 1.69577 101.732 2.6586 101.732 3.79478V118.598Z" fill="#CCCCCC"/>
<path id="Vector_36" d="M102.25 34.8962H45.3867V35.9633H102.25V34.8962Z" fill="#CCCCCC"/>
<path id="Vector_37" d="M102.25 12.8695H45.3867V13.9366H102.25V12.8695Z" fill="#CCCCCC"/>
<path id="Vector_38" d="M102.25 52.6802H45.3867V53.7473H102.25V52.6802Z" fill="#CCCCCC"/>
<path id="Vector_39" d="M63.8396 0.478851H62.8026V67.7966H63.8396V0.478851Z" fill="#CCCCCC"/>
<path id="Vector_40" d="M84.8346 0.478851H83.7976V67.7966H84.8346V0.478851Z" fill="#CCCCCC"/>
<path id="Vector_41" d="M108.732 115.724H40.6335C39.3964 115.726 38.2104 116.232 37.3356 117.132C36.4609 118.032 35.9688 119.253 35.9673 120.526C35.9667 121.138 36.081 121.744 36.304 122.312C36.6504 123.202 37.2479 123.965 38.0195 124.503C38.7912 125.04 39.7016 125.328 40.6335 125.328H108.732C109.546 125.328 110.346 125.108 111.053 124.691C111.759 124.274 112.347 123.674 112.759 122.95C112.876 122.746 112.977 122.532 113.063 122.312C113.286 121.744 113.4 121.138 113.399 120.526C113.397 119.252 112.905 118.032 112.03 117.132C111.155 116.232 109.969 115.726 108.732 115.724Z" fill="#CCCCCC"/>
<path id="Vector_42" d="M102.25 65.3069H45.7324V68.8637H102.25V65.3069Z" fill="#CCCCCC"/>
<g id="head">
<path id="ab6171fa-7d69-4734-b81c-8dff60f9761b" d="M74.9885 75.3379C80.904 75.3379 85.6994 70.4036 85.6994 64.3169C85.6994 58.2302 80.904 53.296 74.9885 53.296C69.0729 53.296 64.2775 58.2302 64.2775 64.3169C64.2775 70.4036 69.0729 75.3379 74.9885 75.3379Z" fill="#FFB8B8"/>
<path id="bf427902-b9bf-4946-b5d7-5c1c7e04535e" d="M63.0401 53.7147C63.121 52.4491 63.9345 51.154 66.5188 50.4772C66.5188 50.4772 70.954 44.6416 76.981 47.7019C76.981 47.7019 79.9028 47.1847 82.0694 50.3039C82.0694 50.3039 84.2175 49.0004 85.1238 51.3109C85.1238 51.3109 87.6432 56.0239 86.7156 60.8312C85.7881 65.6385 85.3134 66.2384 85.3134 66.2384C85.3134 66.2384 86.4956 56.2946 79.6862 56.9842C72.8768 57.6737 67.3946 55.2097 65.8525 60.6045C64.5721 65.084 64.7333 67.4105 64.7333 67.4105C64.7333 67.4105 60.4514 62.9418 61.9073 59.4229C62.6519 57.6232 62.9152 55.6665 63.0401 53.7147Z" fill="#2F2E41"/>
</g>
<path id="Vector_43" d="M45.8611 124.546H105.107C104.711 119.896 104.452 102.121 104.452 100.951C104.452 95.7914 100.348 90.1605 100.348 90.1605L98.8796 89.3251L86.6137 85.3875L83.4395 81.1449C83.1071 80.6994 82.6788 80.3392 82.1882 80.0928C81.6977 79.8464 81.1583 79.7203 80.6124 79.7247L70.5852 79.8021C69.7028 79.809 68.8548 80.1548 68.2072 80.7717L61.998 86.6985L52.891 91.1733L52.8755 91.1574L52.7804 91.2302L51.4288 92.2317L50.5595 92.8781C50.5595 92.8781 48.2789 95.6936 46.4561 104.138C46.1818 105.408 45.9894 121.849 45.8611 124.546Z" fill="#6C63FF"/>
<path id="Vector_44" d="M118.819 122.312C118.677 122.446 118.532 122.578 118.388 122.711C117.842 123.21 117.288 123.701 116.727 124.184C115.878 124.912 115.012 125.618 114.128 126.302H34.3726C32.7485 125.047 31.1843 123.717 29.6801 122.312H118.819Z" fill="#CCCCCC"/>
<path id="Vector_45" d="M89.5846 123.269H60.2661L60.8865 120.237H88.964L89.5846 123.269Z" fill="#2F2E41"/>
<path id="Vector_46" d="M116.109 110.181H108.48C108.308 110.18 108.138 110.219 107.982 110.293C107.825 110.368 107.687 110.476 107.576 110.612C107.47 110.591 107.362 110.58 107.253 110.58C107.015 110.58 106.78 110.628 106.56 110.721C106.34 110.815 106.141 110.952 105.973 111.125C105.804 111.298 105.671 111.503 105.58 111.729C105.489 111.955 105.442 112.197 105.442 112.442C105.442 112.687 105.489 112.929 105.58 113.155C105.671 113.381 105.804 113.586 105.973 113.759C106.141 113.932 106.34 114.069 106.56 114.163C106.78 114.256 107.015 114.304 107.253 114.304C107.526 114.304 107.796 114.239 108.041 114.115L108.168 115.724L108.674 122.083C108.698 122.163 108.73 122.239 108.77 122.312C108.873 122.505 109.023 122.666 109.207 122.778C109.391 122.891 109.601 122.95 109.814 122.95H114.775C114.989 122.95 115.199 122.89 115.383 122.778C115.567 122.666 115.718 122.505 115.821 122.312C115.86 122.239 115.891 122.162 115.915 122.083L117.249 111.769C117.304 111.586 117.317 111.391 117.285 111.202C117.254 111.013 117.18 110.834 117.069 110.679C116.958 110.525 116.813 110.399 116.647 110.313C116.48 110.226 116.296 110.181 116.109 110.181ZM107.253 113.772C106.911 113.772 106.582 113.632 106.34 113.382C106.098 113.133 105.962 112.794 105.962 112.442C105.962 112.089 106.098 111.751 106.34 111.502C106.582 111.252 106.911 111.112 107.253 111.112C107.277 111.112 107.298 111.118 107.321 111.12C107.27 111.334 107.277 111.558 107.34 111.769L107.886 113.595C107.694 113.71 107.476 113.771 107.253 113.772V113.772Z" fill="#3F3D56"/>
<path id="Vector_47" d="M98.8781 76.4338H50.5847C50.1698 76.4345 49.7721 76.6044 49.4787 76.9063C49.1853 77.2082 49.0202 77.6174 49.0195 78.0443V111.576C49.0199 112.003 49.185 112.412 49.4784 112.714C49.7719 113.016 50.1697 113.186 50.5847 113.186H98.8781C99.2931 113.186 99.691 113.016 99.9844 112.714C100.278 112.412 100.443 112.003 100.443 111.576V78.0443C100.443 77.6174 100.278 77.2082 99.9841 76.9063C99.6907 76.6044 99.293 76.4345 98.8781 76.4338Z" fill="#3F3D56"/>
<path id="Vector_48" d="M80.17 103.302H68.8723C68.7125 103.302 68.5593 103.367 68.4464 103.484C68.3336 103.6 68.2703 103.758 68.2704 103.923V122.286H80.7735V103.923C80.7735 103.841 80.758 103.76 80.7276 103.685C80.6973 103.609 80.6529 103.541 80.5968 103.483C80.5408 103.426 80.4743 103.38 80.401 103.349C80.3278 103.318 80.2493 103.302 80.17 103.302V103.302ZM74.5592 113.736C74.2059 113.734 73.8675 113.589 73.6177 113.332C73.3679 113.075 73.2268 112.726 73.2251 112.363V110.245C73.2255 109.881 73.3663 109.532 73.6164 109.275C73.8665 109.018 74.2056 108.874 74.5592 108.874C74.9127 108.874 75.2518 109.018 75.502 109.275C75.7521 109.532 75.8929 109.881 75.8933 110.245V112.363C75.8916 112.726 75.7505 113.075 75.5007 113.332C75.2509 113.589 74.9125 113.734 74.5592 113.736V113.736Z" fill="#2F2E41"/>
<path id="Vector_49" d="M68.2317 121.699V123.47C68.2319 123.562 68.2674 123.65 68.3305 123.715C68.3936 123.78 68.4791 123.817 68.5683 123.817H80.4757C80.5648 123.816 80.6502 123.78 80.7132 123.715C80.7762 123.65 80.8118 123.562 80.8123 123.47V121.699H68.2317Z" fill="#3F3D56"/>
<g id="hands">
<path id="Vector_50" d="M62.1837 122.471C64.4112 122.471 66.2169 120.613 66.2169 118.321C66.2169 116.029 64.4112 114.171 62.1837 114.171C59.9562 114.171 58.1505 116.029 58.1505 118.321C58.1505 120.613 59.9562 122.471 62.1837 122.471Z" fill="#FFB8B8"/>
<path id="Vector_51" d="M90.3601 123.269C92.5876 123.269 94.3934 121.411 94.3934 119.119C94.3934 116.827 92.5876 114.969 90.3601 114.969C88.1326 114.969 86.3269 116.827 86.3269 119.119C86.3269 121.411 88.1326 123.269 90.3601 123.269Z" fill="#FFB8B8"/>
</g>
<path id="Vector_52" d="M28.92 87.4232H10.5223C10.3942 87.4233 10.2714 87.4756 10.1807 87.5686C10.09 87.6617 10.0388 87.7879 10.0383 87.9196V89.0417C10.6452 91.4338 11.3801 93.7896 12.2395 96.0983H28.92C28.9834 96.0983 29.0461 96.0855 29.1047 96.0606C29.1633 96.0357 29.2165 95.9991 29.2613 95.953C29.3061 95.9069 29.3416 95.8522 29.3659 95.7919C29.3901 95.7316 29.4025 95.6671 29.4024 95.6019V87.9196C29.4023 87.788 29.3514 87.6619 29.261 87.5688C29.1705 87.4757 29.0479 87.4234 28.92 87.4232V87.4232Z" fill="#6C63FF"/>
<path id="Vector_53" d="M27.1671 101.326H14.4314C14.6175 101.726 14.8089 102.124 15.0053 102.52H27.1671C27.9241 102.531 27.9164 101.316 27.1671 101.326Z" fill="#E4E4E4"/>
<path id="Vector_54" d="M27.1671 104.063H15.7888C15.9966 104.464 16.2107 104.861 16.4279 105.257H27.1671C27.9241 105.268 27.9164 104.052 27.1671 104.063Z" fill="#E4E4E4"/>
<g id="smoke">
<g id="Vector_55" filter="url(#filter0_d_1_2)">
<path d="M113.751 80.2628C112.709 79.111 111.647 78.002 110.837 76.7505C110.796 76.6875 110.722 76.654 110.648 76.6667V76.6667C110.518 76.6888 110.451 76.8345 110.522 76.9454C110.573 77.0243 110.624 77.1026 110.676 77.181C111.557 78.4945 112.766 79.633 113.812 80.87C114.356 81.4838 114.784 82.151 115.083 82.8523C115.361 83.5827 115.466 84.3427 115.394 85.0975C115.134 88.2467 112.588 90.9036 111.279 93.8113C110.637 95.2346 110.281 96.7544 110.644 98.2573C111.006 99.7603 112.04 101.108 112.973 102.447C113.896 103.767 114.823 105.204 114.797 106.726C114.773 107.966 114.091 109.257 112.622 109.895C112.579 109.914 112.547 109.946 112.534 109.984C112.521 110.021 112.528 110.061 112.554 110.095C112.58 110.129 112.622 110.154 112.671 110.165C112.72 110.176 112.773 110.172 112.819 110.154C113.154 110.012 113.46 109.835 113.728 109.628C114.834 108.782 115.286 107.516 115.179 106.343C115.041 104.827 114.114 103.429 113.18 102.103C112.19 100.696 110.755 97.7671 110.561 96.1579C110.366 94.5686 110.944 93.009 111.711 91.5522C113.198 88.7312 116.105 87.068 115.892 83.8964C115.791 82.4002 114.858 81.489 113.751 80.2628Z" fill="#3F3D56" fill-opacity="0.35" shape-rendering="crispEdges"/>
</g>
<g id="Vector_56" filter="url(#filter1_d_1_2)">
<path d="M112.289 80.3834C111.218 79.1996 114.812 76.251 113.994 74.9566C114.124 74.9351 113.865 74.9781 113.994 74.9566C113.891 74.8017 114.09 75.1153 113.994 74.9566C114.875 76.2701 111.303 79.7536 112.35 80.9906C112.894 81.6043 113.322 82.2716 113.621 82.9728C113.898 83.7032 113.693 84.7664 113.621 85.5213C113.38 88.446 110.678 90.2628 110.715 92.8737C110.721 93.2767 110.626 93.6908 110.667 94.0918C110.777 95.1546 112.468 95.884 112.776 97.1604C113.139 98.6633 110.577 101.229 111.511 102.567C112.434 103.887 112.377 105.056 111.961 106.114C111.587 107.062 112.723 107.533 112.209 108.46C112.074 108.702 111.871 108.91 111.713 109.139C111.453 109.517 111.08 110.079 111.072 110.104C111.059 110.142 111.066 110.182 111.091 110.215V110.215C111.146 110.287 111.264 110.22 111.335 110.275C111.34 110.278 111.345 110.279 111.356 110.275C111.691 110.133 111.449 109.006 111.717 108.8C112.822 107.953 112.456 106.851 112.35 105.678C112.211 104.162 112.651 103.549 111.717 102.223C110.727 100.816 112.71 98.4115 112.515 96.8023C112.32 95.213 109.482 93.1296 110.248 91.6728C111.736 88.8517 113.834 88.6928 113.621 85.5213C113.519 84.0251 113.396 81.6095 112.289 80.3834Z" fill="#3F3D56" fill-opacity="0.4" shape-rendering="crispEdges"/>
</g>
<g id="Vector_57" filter="url(#filter2_d_1_2)">
<path d="M111.335 106.74C112.396 107.873 113.477 108.963 114.308 110.2C114.35 110.262 114.425 110.294 114.498 110.28V110.28C114.627 110.256 114.692 110.109 114.619 109.999C114.567 109.921 114.515 109.844 114.461 109.767C113.558 108.469 112.33 107.352 111.263 106.134C110.709 105.53 110.269 104.871 109.959 104.175C109.669 103.45 109.551 102.692 109.61 101.936C109.816 98.7826 112.317 96.0803 113.577 93.1495C114.195 91.7149 114.525 90.189 114.136 88.6928C113.748 87.1966 112.692 85.8673 111.736 84.546C110.79 83.2425 109.84 81.8219 109.84 80.2998C109.842 79.06 110.503 77.7565 111.96 77.0929C112.004 77.0723 112.035 77.0397 112.047 77.0021C112.059 76.9645 112.052 76.9248 112.025 76.8914C111.999 76.8581 111.957 76.8337 111.907 76.8235C111.858 76.8132 111.805 76.8179 111.76 76.8366C111.427 76.985 111.124 77.1676 110.859 77.379C109.768 78.2453 109.338 79.519 109.465 80.6893C109.629 82.2034 110.579 83.5843 111.535 84.8937C112.549 86.2826 114.033 89.1849 114.255 90.7904C114.477 92.376 113.925 92.7358 113.183 94.2062C111.744 97.0535 108.866 98.7687 109.132 101.936C109.259 103.43 110.207 105.534 111.335 106.74Z" fill="#3F3D56" fill-opacity="0.3" shape-rendering="crispEdges"/>
</g>
</g>
</g>
<defs>
<filter id="filter0_d_1_2" x="106.493" y="76.664" width="13.4098" height="41.5071" filterUnits="userSpaceOnUse" color-interpolation-filters="sRGB">
<feFlood flood-opacity="0" result="BackgroundImageFix"/>
<feColorMatrix in="SourceAlpha" type="matrix" values="0 0 0 0 0 0 0 0 0 0 0 0 0 0 0 0 0 0 127 0" result="hardAlpha"/>
<feOffset dy="4"/>
<feGaussianBlur stdDeviation="2"/>
<feComposite in2="hardAlpha" operator="out"/>
<feColorMatrix type="matrix" values="0 0 0 0 0 0 0 0 0 0 0 0 0 0 0 0 0 0 0.25 0"/>
<feBlend mode="normal" in2="BackgroundImageFix" result="effect1_dropShadow_1_2"/>
<feBlend mode="normal" in="SourceGraphic" in2="effect1_dropShadow_1_2" result="shape"/>
</filter>
<filter id="filter1_d_1_2" x="106.117" y="74.9123" width="12.0184" height="43.3654" filterUnits="userSpaceOnUse" color-interpolation-filters="sRGB">
<feFlood flood-opacity="0" result="BackgroundImageFix"/>
<feColorMatrix in="SourceAlpha" type="matrix" values="0 0 0 0 0 0 0 0 0 0 0 0 0 0 0 0 0 0 127 0" result="hardAlpha"/>
<feOffset dy="4"/>
<feGaussianBlur stdDeviation="2"/>
<feComposite in2="hardAlpha" operator="out"/>
<feColorMatrix type="matrix" values="0 0 0 0 0 0 0 0 0 0 0 0 0 0 0 0 0 0 0.25 0"/>
<feBlend mode="normal" in2="BackgroundImageFix" result="effect1_dropShadow_1_2"/>
<feBlend mode="normal" in="SourceGraphic" in2="effect1_dropShadow_1_2" result="shape"/>
</filter>
<filter id="filter2_d_1_2" x="105.115" y="76.8181" width="13.5348" height="41.4653" filterUnits="userSpaceOnUse" color-interpolation-filters="sRGB">
<feFlood flood-opacity="0" result="BackgroundImageFix"/>
<feColorMatrix in="SourceAlpha" type="matrix" values="0 0 0 0 0 0 0 0 0 0 0 0 0 0 0 0 0 0 127 0" result="hardAlpha"/>
<feOffset dy="4"/>
<feGaussianBlur stdDeviation="2"/>
<feComposite in2="hardAlpha" operator="out"/>
<feColorMatrix type="matrix" values="0 0 0 0 0 0 0 0 0 0 0 0 0 0 0 0 0 0 0.25 0"/>
<feBlend mode="normal" in2="BackgroundImageFix" result="effect1_dropShadow_1_2"/>
<feBlend mode="normal" in="SourceGraphic" in2="effect1_dropShadow_1_2" result="shape"/>
</filter>
<radialGradient id="paint0_radial_1_2" cx="0" cy="0" r="1" gradientUnits="userSpaceOnUse" gradientTransform="translate(-28 164) rotate(-44.0266) scale(291.37 170.281)">
<stop stop-color="#F7CBFD"/>
<stop offset="1" stop-color="#7758D1"/>
</radialGradient>
<radialGradient id="paint1_angular_1_2" cx="0" cy="0" r="1" gradientUnits="userSpaceOnUse" gradientTransform="translate(76.087 85.2196) rotate(-44.4681) scale(76.2879 76.2808)">
<stop offset="0.036054" stop-color="#2C1C40" stop-opacity="0.85"/>
<stop offset="0.296875" stop-color="#1C043A"/>
<stop offset="0.615063" stop-color="#0E021D" stop-opacity="0.63"/>
<stop offset="0.811072" stop-color="#9F83C1" stop-opacity="0"/>
</radialGradient>
<radialGradient id="paint2_angular_1_2" cx="0" cy="0" r="1" gradientUnits="userSpaceOnUse" gradientTransform="translate(76.087 85.2196) rotate(-44.4681) scale(76.2879 76.2808)">
<stop offset="0.036054" stop-color="#2C1C40" stop-opacity="0.85"/>
<stop offset="0.296875" stop-color="#1C043A"/>
<stop offset="0.615063" stop-color="#0E021D" stop-opacity="0.63"/>
<stop offset="0.811072" stop-color="#9F83C1" stop-opacity="0"/>
</radialGradient>
<linearGradient id="paint3_linear_1_2" x1="59.9731" y1="91.6131" x2="61.024" y2="103.567" gradientUnits="userSpaceOnUse">
<stop stop-color="white"/>
<stop offset="1" stop-color="white" stop-opacity="0.3"/>
</linearGradient>
<linearGradient id="paint4_linear_1_2" x1="110.988" y1="103.408" x2="111.63" y2="114.39" gradientUnits="userSpaceOnUse">
<stop stop-color="white"/>
<stop offset="1" stop-color="white" stop-opacity="0.3"/>
</linearGradient>
<radialGradient id="paint5_radial_1_2" cx="0" cy="0" r="1" gradientUnits="userSpaceOnUse" gradientTransform="translate(-69.9999 210) rotate(-43.8403) scale(349.382)">
<stop stop-color="#F7CBFD"/>
<stop offset="1" stop-color="#7758D1"/>
</radialGradient>
<clipPath id="clip0_1_2">
<rect width="140" height="140" fill="white"/>
</clipPath>
</defs>
</svg>
