<svg width="171" height="100" viewBox="0 0 171 100" fill="none" xmlns="http://www.w3.org/2000/svg">
<g filter="url(#filter0_bi_0_3)">
<path d="M0 54.6376C0 26.2434 0 12.0463 8.16988 4.87689C16.3398 -2.29257 31.9212 -0.251454 63.0842 3.83078C70.8799 4.85198 78.5437 5.49296 85.5 5.49296C92.4563 5.49296 100.12 4.85198 107.916 3.83078C139.079 -0.251451 154.66 -2.29257 162.83 4.87689C171 12.0463 171 26.2434 171 54.6376V100H0V54.6376Z" fill="black" fill-opacity="0.58"/>
<path d="M0 54.6376C0 26.2434 0 12.0463 8.16988 4.87689C16.3398 -2.29257 31.9212 -0.251454 63.0842 3.83078C70.8799 4.85198 78.5437 5.49296 85.5 5.49296C92.4563 5.49296 100.12 4.85198 107.916 3.83078C139.079 -0.251451 154.66 -2.29257 162.83 4.87689C171 12.0463 171 26.2434 171 54.6376V100H0V54.6376Z" fill="url(#paint0_linear_0_3)"/>
</g>
<defs>
<filter id="filter0_bi_0_3" x="-60" y="-59.8737" width="291" height="219.874" filterUnits="userSpaceOnUse" color-interpolation-filters="sRGB">
<feFlood flood-opacity="0" result="BackgroundImageFix"/>
<feGaussianBlur in="BackgroundImage" stdDeviation="30"/>
<feComposite in2="SourceAlpha" operator="in" result="effect1_backgroundBlur_0_3"/>
<feBlend mode="normal" in="SourceGraphic" in2="effect1_backgroundBlur_0_3" result="shape"/>
<feColorMatrix in="SourceAlpha" type="matrix" values="0 0 0 0 0 0 0 0 0 0 0 0 0 0 0 0 0 0 127 0" result="hardAlpha"/>
<feOffset dy="1"/>
<feComposite in2="hardAlpha" operator="arithmetic" k2="-1" k3="1"/>
<feColorMatrix type="matrix" values="0 0 0 0 1 0 0 0 0 1 0 0 0 0 1 0 0 0 0.7 0"/>
<feBlend mode="overlay" in2="shape" result="effect2_innerShadow_0_3"/>
</filter>
<linearGradient id="paint0_linear_0_3" x1="85.2286" y1="-44.2308" x2="85.2286" y2="102.308" gradientUnits="userSpaceOnUse">
<stop stop-color="white" stop-opacity="0"/>
<stop offset="1"/>
</linearGradient>
</defs>
</svg>
